PathFileType	4	(x/y/z)	A01_PREF_T0018.trc
DataRate	CameraRate	NumFrames	NumMarkers	Units	OrigDataRate	OrigDataStartFrame	OrigNumFrames
240	240	11	48	mm	240	78	310
Frame#	Time	TOP_HEAD			R_AC			L_AC			R_ASIS			L_ASIS			R_PSIS			L_PSIS			SACRAL			L_IC			R_IC			L_GT			R_GT			R_LAT_KNEE			R_MED_KNEE			L_MED_KNEE			L_LAT_KNEE			R_TOE			L_TOE			R_1ST_MET			L_1ST_MET			L_5TH_MET			R_5TH_MET			R_LAT_ANK			R_MED_ANK			L_MED_ANK			L_LAT_ANK			L_HEEL_SUP			R_HEEL_SUP			L_HEEL_LAT			R_HEEL_LAT			L_HEEL_MED			R_HEEL_MED			R_LL_PROX_POST			R_LL_PROX_ANT			R_LL_DIST_ANT			R_LL_DIST_POST			R_THIGH_PROX_POST			R_THIGH_PROX_ANT			R_THIGH_DIST_ANT			R_THIGH_DIST_POST			L_PROS_PROX_ANT			L_PROS_PROX_POST			L_PROS_DIST_POST			L_PROS_DIST_ANT			L_THIGH_PROX_ANT			L_THIGH_PROX_POST			L_THIGH_DIST_POST			L_THIGH_DIST_ANT			
		X1	Y1	Z1	X2	Y2	Z2	X3	Y3	Z3	X4	Y4	Z4	X5	Y5	Z5	X6	Y6	Z6	X7	Y7	Z7	X8	Y8	Z8	X9	Y9	Z9	X10	Y10	Z10	X11	Y11	Z11	X12	Y12	Z12	X13	Y13	Z13	X14	Y14	Z14	X15	Y15	Z15	X16	Y16	Z16	X17	Y17	Z17	X18	Y18	Z18	X19	Y19	Z19	X20	Y20	Z20	X21	Y21	Z21	X22	Y22	Z22	X23	Y23	Z23	X24	Y24	Z24	X25	Y25	Z25	X26	Y26	Z26	X27	Y27	Z27	X28	Y28	Z28	X29	Y29	Z29	X30	Y30	Z30	X31	Y31	Z31	X32	Y32	Z32	X33	Y33	Z33	X34	Y34	Z34	X35	Y35	Z35	X36	Y36	Z36	X37	Y37	Z37	X38	Y38	Z38	X39	Y39	Z39	X40	Y40	Z40	X41	Y41	Z41	X42	Y42	Z42	X43	Y43	Z43	X44	Y44	Z44	X45	Y45	Z45	X46	Y46	Z46	X47	Y47	Z47	X48	Y48	Z48	

78	0.32187	-159.48	1740.3	277.37	-381.73	1567.9	532.01	-419.85	1532.4	75.405	-418.85	1098.7	545.83	-400.61	1031.4	197.04	-626.67	1084.1	414.98	-615.96	1088.8	282.83	-636.71	1056.2	347.86	-429.74	1135	149.11	-447.57	1207.2	540.72	-459.03	951.66	155.97	-477.25	979.13	588.34	-437.39	574.64	558.85	-388.05	555.29	430.92	-367.68	561.33	370.52	-391.83	567.84	214.66	-684.01	65.195	464.09	-230.35	84.161	269.39	-742.18	122.1	409.44	-307.73	57.304	328.47	-341.36	47.098	199.78	-773.91	145.62	537.09	-780.83	281.9	506.94	-758.79	274.78	407.28	-434.47	126.62	315.04	-467.42	118.83	248.5	-554.01	73.075	291.31	-855.22	338.08	436.86	-542.11	45.034	259.55	-873.23	321.39	470.97	-530.7	43.704	323.26	-871.56	315.44	411.94	-614.22	518.78	541.65	-575.67	462.89	569.33	-625.33	408.79	548.78	-659.75	449.88	531.05	-496.87	831.93	576.82	-431.17	861.91	581.84	-414.22	771.61	582.16	-476.89	744.34	573.39	-349.91	483	226.49	-405.32	485.61	217.35	-414.59	423.89	226.32	-360.86	428.23	233.76	-375.57	819.36	189.58	-446.61	815.98	176	-425.98	742.95	187.59	-361.24	747.34	199.51
79	0.32605	-154.42	1741	277.69	-377.35	1568.5	532.12	-414.34	1533.2	75.348	-413.43	1099.7	545.41	-395.31	1031.8	196.73	-621.37	1084.6	414.58	-610.62	1089.4	282.41	-631.38	1056.7	347.44	-424.42	1135.4	148.83	-442.55	1207.7	540.46	-453.9	952.09	155.68	-471.46	979.96	588	-427.52	575.81	558.65	-378.08	556.64	430.76	-365.3	561.18	370.58	-389.32	567.81	214.72	-666.33	66.199	464.75	-230.26	84.067	269.38	-726.02	121.16	409.86	-307.67	57.291	328.44	-341.33	47.114	199.79	-758.17	144.54	537.45	-768.55	280.25	506.64	-746.29	273.21	406.92	-434.09	126.81	315.03	-467.07	119.18	248.51	-553.84	73.429	291.32	-844.39	334.33	436.31	-542.05	45.334	259.56	-861.92	317.34	470.49	-530.66	44.031	323.25	-860.15	311.13	411.47	-604.06	518.4	541.76	-564.96	462.84	569.28	-614.14	408.3	548.72	-648.96	449.08	531.07	-489.44	832.55	576.73	-423.93	863.17	581.64	-406.21	773.02	582.01	-468.63	745.15	573.41	-347.82	482.77	226.55	-403.22	485.65	217.4	-412.79	423.99	226.38	-359.05	428.05	233.82	-371.26	819.3	189.46	-442.29	816.36	175.86	-422.12	743.22	187.51	-357.34	747.22	199.43
80	0.33023	-149.37	1741.7	278.04	-372.96	1569.1	532.23	-408.85	1534	75.313	-408	1100.6	545	-390.02	1032.1	196.42	-616.08	1085.1	414.18	-605.28	1090	282	-626.06	1057.3	347.03	-419.11	1135.9	148.55	-437.53	1208.2	540.22	-448.79	952.51	155.4	-465.72	980.81	587.66	-417.75	577	558.44	-368.16	558.05	430.61	-362.94	561.03	370.67	-386.84	567.79	214.8	-648.42	67.081	465.39	-230.16	83.966	269.36	-709.61	120.06	410.27	-307.61	57.276	328.41	-341.29	47.131	199.8	-742.21	143.23	537.81	-756.11	278.32	506.36	-733.59	271.37	406.58	-433.7	127.01	315.03	-466.71	119.54	248.52	-553.67	73.803	291.32	-833.36	330.24	435.78	-542	45.653	259.57	-850.39	312.95	470.04	-530.64	44.377	323.25	-848.5	306.48	411.01	-593.93	517.89	541.84	-554.25	462.69	569.24	-602.89	407.68	548.67	-638.14	448.12	531.09	-482.09	833.2	576.64	-416.78	864.44	581.44	-398.29	774.46	581.86	-460.46	746	573.42	-345.76	482.54	226.63	-401.14	485.7	217.46	-411.01	424.09	226.45	-357.25	427.88	233.89	-366.98	819.23	189.36	-437.99	816.74	175.73	-418.28	743.48	187.44	-353.47	747.08	199.36
81	0.33441	-144.34	1742.3	278.42	-368.56	1569.7	532.35	-403.38	1534.8	75.299	-402.59	1101.6	544.6	-384.74	1032.5	196.1	-610.81	1085.6	413.78	-599.96	1090.5	281.59	-620.74	1057.8	346.63	-413.8	1136.4	148.26	-432.51	1208.8	539.99	-443.71	952.91	155.13	-460.01	981.68	587.34	-408.07	578.21	558.21	-358.29	559.52	430.47	-360.59	560.89	370.76	-384.4	567.78	214.89	-630.33	67.845	466.02	-230.06	83.86	269.35	-692.96	118.81	410.67	-307.54	57.257	328.38	-341.26	47.147	199.8	-726.06	141.71	538.15	-743.5	276.1	506.11	-720.71	269.29	406.25	-433.31	127.21	315.04	-466.34	119.9	248.54	-553.5	74.197	291.33	-822.11	325.82	435.27	-541.94	45.991	259.57	-838.65	308.22	469.6	-530.61	44.743	323.25	-836.61	301.51	410.57	-583.84	517.24	541.9	-543.54	462.46	569.2	-591.6	406.94	548.63	-627.3	447.01	531.09	-474.83	833.88	576.54	-409.71	865.74	581.25	-390.46	775.92	581.72	-452.38	746.87	573.44	-343.72	482.33	226.73	-399.08	485.75	217.54	-409.25	424.2	226.53	-355.47	427.72	233.98	-362.74	819.15	189.28	-433.7	817.12	175.61	-414.47	743.74	187.39	-349.64	746.94	199.32
82	0.33859	-139.31	1743	278.81	-364.15	1570.2	532.48	-397.92	1535.7	75.305	-397.17	1102.5	544.2	-379.47	1032.9	195.78	-605.54	1086.2	413.4	-594.66	1091.1	281.19	-615.44	1058.4	346.25	-408.49	1136.9	147.98	-427.48	1209.3	539.77	-438.66	953.3	154.86	-454.35	982.57	587.02	-398.5	579.44	557.98	-348.49	561.04	430.34	-358.26	560.74	370.87	-381.98	567.76	215	-612.05	68.499	466.64	-229.95	83.747	269.33	-676.09	117.41	411.06	-307.47	57.236	328.34	-341.22	47.163	199.82	-709.72	140	538.49	-730.71	273.63	505.87	-707.64	266.96	405.95	-432.92	127.42	315.05	-465.97	120.27	248.55	-553.32	74.609	291.33	-810.64	321.08	434.79	-541.87	46.347	259.58	-826.68	303.18	469.19	-530.6	45.126	323.26	-824.46	296.25	410.14	-573.77	516.48	541.93	-532.84	462.16	569.15	-580.27	406.09	548.59	-616.44	445.75	531.07	-467.65	834.59	576.44	-402.72	867.05	581.07	-382.72	777.4	581.57	-444.38	747.78	573.46	-341.71	482.12	226.84	-397.04	485.81	217.63	-407.51	424.31	226.62	-353.71	427.57	234.08	-358.53	819.06	189.22	-429.43	817.5	175.49	-410.68	743.99	187.34	-345.84	746.79	199.29
83	0.34277	-134.3	1743.6	279.23	-359.73	1570.8	532.61	-392.47	1536.5	75.329	-391.75	1103.3	543.8	-374.22	1033.2	195.46	-600.28	1086.7	413.02	-589.37	1091.7	280.8	-610.15	1058.9	345.88	-403.19	1137.5	147.69	-422.45	1209.8	539.57	-433.63	953.68	154.61	-448.72	983.48	586.72	-389.03	580.69	557.75	-338.77	562.61	430.23	-355.93	560.6	371	-379.58	567.75	215.12	-593.62	69.049	467.25	-229.84	83.629	269.31	-659	115.89	411.44	-307.4	57.211	328.3	-341.18	47.178	199.83	-693.2	138.09	538.83	-717.75	270.89	505.65	-694.38	264.4	405.68	-432.52	127.64	315.07	-465.59	120.65	248.57	-553.14	75.039	291.33	-798.95	316.04	434.34	-541.8	46.721	259.59	-814.49	297.84	468.8	-530.58	45.525	323.25	-812.06	290.71	409.72	-563.74	515.61	541.92	-522.16	461.79	569.1	-568.92	405.14	548.56	-605.56	444.36	531.04	-460.55	835.31	576.34	-395.82	868.37	580.89	-375.08	778.9	581.43	-436.48	748.71	573.49	-339.72	481.92	226.96	-395.03	485.87	217.73	-405.78	424.43	226.71	-351.96	427.42	234.19	-354.35	818.97	189.17	-425.18	817.87	175.37	-406.91	744.25	187.3	-342.07	746.64	199.28
84	0.34695	-129.29	1744.3	279.68	-355.29	1571.3	532.74	-387.02	1537.4	75.369	-386.34	1104.2	543.41	-368.98	1033.5	195.13	-595.03	1087.3	412.65	-584.09	1092.2	280.42	-604.86	1059.4	345.52	-397.89	1138	147.41	-417.42	1210.4	539.38	-428.62	954.05	154.36	-443.12	984.39	586.43	-379.67	581.94	557.51	-329.15	564.22	430.13	-353.61	560.46	371.13	-377.21	567.75	215.25	-575.06	69.503	467.85	-229.72	83.504	269.3	-641.71	114.26	411.82	-307.32	57.184	328.25	-341.14	47.193	199.84	-676.51	136.02	539.16	-704.62	267.92	505.46	-680.95	261.63	405.43	-432.12	127.87	315.09	-465.21	121.04	248.58	-552.96	75.487	291.33	-787.03	310.72	433.93	-541.73	47.112	259.6	-802.07	292.22	468.44	-530.57	45.94	323.25	-799.39	284.9	409.34	-553.74	514.62	541.87	-511.5	461.35	569.04	-557.53	404.1	548.54	-594.67	442.84	530.99	-453.53	836.06	576.24	-389	869.69	580.71	-367.52	780.41	581.3	-428.66	749.67	573.51	-337.74	481.73	227.09	-393.03	485.94	217.84	-404.06	424.56	226.81	-350.24	427.29	234.31	-350.2	818.87	189.14	-420.95	818.23	175.26	-403.15	744.5	187.27	-338.34	746.48	199.29
85	0.35113	-124.28	1744.9	280.14	-350.83	1571.9	532.87	-381.57	1538.3	75.424	-380.93	1105	543.03	-363.75	1033.8	194.81	-589.8	1087.9	412.3	-578.82	1092.8	280.05	-599.58	1059.9	345.18	-392.6	1138.6	147.12	-412.39	1210.9	539.2	-423.63	954.4	154.13	-437.55	985.31	586.16	-370.42	583.2	557.27	-319.62	565.86	430.04	-351.3	560.32	371.27	-374.87	567.75	215.39	-556.38	69.869	468.43	-229.6	83.374	269.28	-624.24	112.52	412.2	-307.25	57.153	328.2	-341.1	47.207	199.85	-659.66	133.79	539.48	-691.31	264.71	505.28	-667.34	258.65	405.22	-431.71	128.1	315.12	-464.82	121.43	248.6	-552.79	75.95	291.33	-774.87	305.13	433.54	-541.66	47.517	259.6	-789.42	286.33	468.11	-530.55	46.367	323.24	-786.47	278.86	408.98	-543.78	513.53	541.77	-500.86	460.85	568.97	-546.13	402.97	548.53	-583.76	441.2	530.92	-446.59	836.81	576.14	-382.26	871.02	580.54	-360.04	781.93	581.17	-420.92	750.64	573.54	-335.78	481.54	227.23	-391.04	486.01	217.96	-402.36	424.69	226.92	-348.52	427.16	234.43	-346.07	818.77	189.12	-416.74	818.59	175.16	-399.42	744.75	187.24	-334.63	746.32	199.31
86	0.35531	-119.29	1745.5	280.62	-346.36	1572.4	533.01	-376.12	1539.3	75.492	-375.52	1105.8	542.65	-358.52	1034.1	194.48	-584.57	1088.4	411.96	-573.57	1093.3	279.7	-594.32	1060.5	344.85	-387.31	1139.2	146.84	-407.37	1211.4	539.04	-418.65	954.74	153.91	-432	986.23	585.91	-361.29	584.47	557.03	-310.21	567.54	429.96	-348.98	560.19	371.42	-372.54	567.76	215.54	-537.59	70.159	469.01	-229.47	83.239	269.27	-606.59	110.69	412.57	-307.17	57.119	328.15	-341.06	47.222	199.87	-642.65	131.42	539.81	-677.82	261.29	505.13	-653.55	255.47	405.04	-431.3	128.35	315.15	-464.43	121.83	248.62	-552.61	76.427	291.32	-762.48	299.29	433.2	-541.58	47.936	259.6	-776.53	280.21	467.82	-530.53	46.805	323.23	-773.28	272.6	408.65	-533.85	512.35	541.62	-490.25	460.3	568.88	-534.72	401.77	548.52	-572.85	439.45	530.82	-439.72	837.58	576.04	-375.59	872.35	580.37	-352.65	783.45	581.04	-413.27	751.63	573.56	-333.84	481.36	227.37	-389.08	486.08	218.08	-400.67	424.83	227.02	-346.82	427.04	234.57	-341.95	818.67	189.11	-412.55	818.94	175.06	-395.7	745	187.22	-330.95	746.16	199.36
87	0.35949	-114.29	1746.1	281.12	-341.88	1573	533.14	-370.67	1540.2	75.572	-370.11	1106.6	542.28	-353.31	1034.4	194.16	-579.36	1089	411.63	-568.33	1093.8	279.37	-589.06	1061	344.54	-382.03	1139.8	146.55	-402.35	1211.9	538.89	-413.69	955.07	153.7	-426.47	987.14	585.68	-352.27	585.73	556.78	-300.91	569.24	429.89	-346.67	560.05	371.57	-370.23	567.77	215.7	-518.71	70.381	469.59	-229.34	83.099	269.25	-588.77	108.8	412.95	-307.1	57.082	328.09	-341.01	47.237	199.88	-625.49	128.93	540.14	-664.16	257.67	504.99	-639.59	252.12	404.89	-430.89	128.6	315.19	-464.03	122.24	248.63	-552.43	76.915	291.31	-749.85	293.22	432.89	-541.5	48.365	259.6	-763.4	273.86	467.56	-530.51	47.252	323.21	-759.83	266.15	408.35	-523.97	511.07	541.41	-479.68	459.71	568.77	-523.3	400.49	548.51	-561.94	437.6	530.7	-432.91	838.36	575.94	-369	873.67	580.22	-345.35	784.98	580.92	-405.7	752.62	573.59	-331.91	481.19	227.53	-387.13	486.16	218.22	-398.99	424.97	227.13	-345.13	426.93	234.71	-337.85	818.57	189.11	-408.38	819.28	174.98	-392.01	745.24	187.21	-327.29	745.99	199.41
88	0.36367	-109.3	1746.7	281.64	-337.37	1573.5	533.28	-365.22	1541.1	75.663	-364.7	1107.4	541.92	-348.11	1034.7	193.85	-574.16	1089.5	411.33	-563.11	1094.3	279.05	-583.82	1061.4	344.25	-376.74	1140.3	146.27	-397.33	1212.3	538.75	-408.74	955.38	153.5	-420.96	988.04	585.47	-343.37	586.99	556.54	-291.72	570.95	429.83	-344.34	559.92	371.73	-367.95	567.78	215.86	-499.75	70.547	470.16	-229.21	82.954	269.24	-570.79	106.84	413.34	-307.02	57.042	328.03	-340.96	47.253	199.9	-608.19	126.33	540.47	-650.32	253.86	504.87	-625.45	248.61	404.78	-430.48	128.87	315.23	-463.64	122.65	248.65	-552.26	77.412	291.3	-736.98	286.95	432.62	-541.41	48.802	259.6	-750.03	267.32	467.33	-530.48	47.706	323.19	-746.12	259.51	408.08	-514.13	509.69	541.14	-469.15	459.07	568.63	-511.87	399.16	548.5	-551.02	435.65	530.55	-426.16	839.14	575.85	-362.47	874.97	580.06	-338.12	786.49	580.81	-398.21	753.62	573.61	-330	481.02	227.69	-385.19	486.25	218.35	-397.33	425.12	227.25	-343.45	426.82	234.85	-333.77	818.48	189.12	-404.24	819.62	174.9	-388.32	745.49	187.2	-323.66	745.83	199.48
